<?xml version="1.0" encoding="UTF-8"?>
<svg width="160px" height="28px" viewBox="0 0 160 28" version="1.1" xmlns="http://www.w3.org/2000/svg" xmlns:xlink="http://www.w3.org/1999/xlink">
    <!-- Generator: sketchtool 41 (35326) - http://www.bohemiancoding.com/sketch -->
    <title>8EBBDB8E-B88F-44E3-A823-6D315F9DC34C</title>
    <desc>Created with sketchtool.</desc>
    <defs></defs>
    <g id="Atlantis-Dashboard" stroke="none" stroke-width="1" fill="none" fill-rule="evenodd">
        <g id="Desktop-HD" transform="translate(-95.000000, -31.000000)" fill="#FFFFFF">
            <g id="header">
                <path d="M110.627586,51.4068966 L113.358621,58.0448276 L117.455172,58.0448276 L106.227586,31 L95,58.0448276 L99.0965517,58.0448276 L101.827586,51.4068966 L110.627586,51.4068966 Z M109.337931,47.9931034 L103.117241,47.9931034 L106.227586,40.0655172 L109.337931,47.9931034 Z M125.610345,58.0448276 L129.47931,58.0448276 L129.47931,35.2103448 L136.041379,35.2103448 L136.041379,31.4931034 L119.048276,31.4931034 L119.048276,35.2103448 L125.610345,35.2103448 L125.610345,58.0448276 Z M139.910345,58.0448276 L154.627586,58.0448276 L154.627586,54.2517241 L143.77931,54.2517241 L143.77931,31.4931034 L139.910345,31.4931034 L139.910345,58.0448276 Z M171.734483,51.4068966 L174.465517,58.0448276 L178.562069,58.0448276 L167.334483,31 L156.106897,58.0448276 L160.203448,58.0448276 L162.934483,51.4068966 L171.734483,51.4068966 Z M170.444828,47.9931034 L164.224138,47.9931034 L167.334483,40.0655172 L170.444828,47.9931034 Z M181.786207,58.0448276 L185.427586,58.0448276 L185.427586,38.0172414 L202.572414,58.5 L202.572414,31.4931034 L198.931034,31.4931034 L198.931034,48.2206897 L185.351724,31.4931034 L181.786207,31.4931034 L181.786207,58.0448276 Z M212.813793,58.0448276 L216.682759,58.0448276 L216.682759,35.2103448 L223.244828,35.2103448 L223.244828,31.4931034 L206.251724,31.4931034 L206.251724,35.2103448 L212.813793,35.2103448 L212.813793,58.0448276 Z M227.113793,58.0448276 L230.982759,58.0448276 L230.982759,31.4931034 L227.113793,31.4931034 L227.113793,58.0448276 Z M242.968966,42.8344828 C240.844828,42.8344828 239.1,41.0896552 239.1,38.9655172 C239.1,36.8413793 240.844828,35.0965517 242.968966,35.0965517 L250.972414,35.0965517 L250.972414,31.4931034 L242.513793,31.4931034 C238.417241,31.4931034 235.155172,34.8310345 235.155172,38.8896552 C235.155172,42.9482759 238.417241,46.4758621 242.513793,46.4758621 L246.193103,46.4758621 C248.468966,46.4758621 250.289655,48.1068966 250.289655,50.3827586 C250.289655,52.6206897 248.468966,54.2517241 246.193103,54.2517241 L236.596552,54.2517241 L236.596552,58.0448276 L246.875862,58.0448276 C251.010345,58.0448276 254.386207,54.5172414 254.386207,50.3448276 C254.386207,46.2482759 251.048276,42.8344828 246.875862,42.8344828 L242.968966,42.8344828 Z" id="ATLANTIS"></path>
            </g>
        </g>
    </g>
</svg>